<?xml version="1.0" encoding="utf-8"?>
<!-- Svg Vector Icons : http://www.onlinewebfonts.com/icon -->
<!DOCTYPE svg PUBLIC "-//W3C//DTD SVG 1.1//EN" "http://www.w3.org/Graphics/SVG/1.1/DTD/svg11.dtd">
<svg version="1.1" xmlns="http://www.w3.org/2000/svg" xmlns:xlink="http://www.w3.org/1999/xlink" x="0px" y="0px" viewBox="0 0 1000 1000" enable-background="new 0 0 1000 1000" xml:space="preserve">
<metadata> Svg Vector Icons : http://www.onlinewebfonts.com/icon </metadata>
<g><g transform="translate(0.000000,512.000000) scale(0.100000,-0.100000)"><path d="M4709.5,5011.6c-870.9-61.4-1661.2-320.3-2359.4-769.2c-564-362.6-1083.8-880.5-1461.7-1450.2c-400.9-610-667.5-1340.8-765.4-2112C88.5,419.4,94.2-244.3,130.7-509c153.5-1103,631.1-2069.8,1402.2-2839c776.9-776.9,1730.2-1246.8,2840.9-1404.1c285.8-40.3,961-40.3,1246.8,0c1569.1,220.6,2890.8,1118.3,3663.8,2486c838.3,1482.8,819.1,3360.8-49.9,4847.4c-381.7,652.2-959.1,1254.5-1590.2,1661.2C6783.1,4796.8,5691.6,5082.6,4709.5,5011.6z M5578.4,4610.7c1195-141.9,2311.5-798,3063.4-1801.2c629.2-840.2,951.4-1925.9,880.5-2979c-42.2-629.2-182.2-1150.9-460.4-1711.1c-232.1-466.1-508.3-851.7-842.1-1179.7l-157.3-153.5l-40.3,55.6c-389.4,527.5-874.7,888.1-1525,1135.6c-237.9,90.2-333.8,159.2-366.4,264.7c-32.6,105.5-44.1,260.9-30.7,404.8l13.4,140l99.8-46c130.4-59.5,303.1-76.7,435.4-46c57.5,13.4,189.9,59.5,295.4,101.7c255.1,103.6,366.4,111.3,558.2,42.2c124.7-46,149.6-49.9,201.4-28.8c147.7,61.4,149.6,170.7,5.8,416.2C7387.3-227,7253.1,189.2,7164.8,920.1c-94,776.9-136.2,993.6-255.1,1292.9c-293.5,738.5-853.6,1181.6-1611.3,1277.5c-592.7,74.8-1181.6-74.8-1590.2-399c-372.1-297.3-650.3-788.4-761.5-1342.8c-21.1-101.7-61.4-372.1-88.2-598.5c-65.2-533.3-94-709.7-163.1-968.7c-88.2-331.9-209.1-615.8-414.3-961c-140-237.9-138.1-349.1,11.5-410.5c53.7-23,72.9-19.2,168.8,21.1c178.4,74.8,349.1,65.2,588.9-32.6c105.5-44.1,237.9-90.1,295.4-103.6c132.4-30.7,305-13.4,435.4,46l99.7,46l13.4-140c13.4-143.9,1.9-299.2-30.7-406.7c-28.8-94-147.7-186.1-297.3-235.9c-191.8-63.3-575.5-249.4-759.6-368.3c-312.7-203.3-600.4-473.8-790.3-738.5c-40.3-55.6-78.7-101.7-86.3-101.7c-24.9,0-376,370.2-498.7,525.6C930.6-2043.6,606.4-1276.3,499-470.6c-42.2,308.8-42.2,847.9,0,1170.1c235.9,1828.1,1572.9,3339.6,3370.3,3807.7C4416,4649.1,4966.5,4683.6,5578.4,4610.7z M5238.9,3126c230.2-28.8,362.5-67.1,558.2-163c372.1-182.2,669.5-552.4,819.1-1018.6c69-209.1,95.9-358.7,165-918.8c95.9-773,184.2-1127.9,393.2-1576.8c47.9-101.7,86.3-186.1,86.3-188c0-1.9-48-9.6-107.4-17.3c-59.5-7.7-209.1-51.8-331.9-101.7c-337.6-134.3-435.4-122.8-686.7,86.3c-61.4,51.8-132.3,97.8-157.3,105.5c-57.5,13.4-165-28.8-189.9-76.7c-26.9-49.9-69.1-698.2-53.7-859.4c23-276.2,117-473.8,282-596.6c51.8-36.4,189.9-105.5,308.8-149.6c581.2-220.6,1033.9-544.8,1342.8-959.1l115.1-153.5l-46-34.5c-161.1-126.6-491.1-328-744.3-454.6C6044.6-4422.2,4955-4545,3932.6-4295.6c-554.4,136.2-1252.6,470-1674.6,799.9l-46,34.5l115.1,153.5c308.8,414.4,761.5,738.5,1342.8,959.1c118.9,44.1,257.1,113.2,308.8,149.6c163.1,120.9,253.2,306.9,280.1,581.2c15.3,153.5-24.9,824.8-51.8,874.7c-24.9,48-132.4,90.2-189.9,76.7c-24.9-7.7-95.9-53.7-157.3-105.5c-251.3-209.1-349.1-220.6-686.7-86.3c-122.8,49.9-270.5,94-329.9,101.7c-61.4,7.7-109.3,15.3-109.3,17.3c0,1.9,40.3,88.2,88.2,193.7C3025.3-110,3119.3,266,3213.3,1019.8c67.1,552.5,99.8,727,165,930.3c122.8,379.8,364.5,723.2,634.9,909.2C4337.4,3083.8,4792,3181.7,5238.9,3126z"/></g></g>
</svg>